<svg xmlns="http://www.w3.org/2000/svg" xmlns:xlink="http://www.w3.org/1999/xlink" width="100px" height="100px" viewBox="0 0 100 100">
    <g id="050f3ea7-9c85-4fab-974f-2206730371e8">
<rect style="stroke: rgb(193,193,193); stroke-width: 0; stroke-dasharray: none; stroke-linecap: butt; stroke-dashoffset: 0; stroke-linejoin: miter; stroke-miterlimit: 4; fill: rgb(255,255,255); fill-rule: nonzero; opacity: 1;" x="-50" y="-50" rx="0" ry="0" width="100" height="100" transform="matrix(1 0 0 1 50 50)"/>
</g>
<g id="d274d6f2-4d07-4fd8-9b1e-598309db5d55">
<g style="">
		<g id="d274d6f2-4d07-4fd8-9b1e-598309db5d55-child-0">
<path style="stroke: rgb(193,193,193); stroke-width: 0; stroke-dasharray: none; stroke-linecap: butt; stroke-dashoffset: 0; stroke-linejoin: miter; stroke-miterlimit: 4; fill: rgb(0,0,0); fill-rule: nonzero; opacity: 1;" transform="matrix(0.147541 0 0 0.147541 49.99992 49.999929) matrix(1 0 0 1 0 0)  translate(-504.076796, -512.037311)" d="M 419.50 783.53 C 387.71 776.56 367.51 749.78 369.33 717.00 C 370.20 701.37 376.17 687.79 386.97 676.94 C 394.52 669.36 401.25 665.26 412.50 661.41 C 419.21 659.11 422.27 658.66 431.50 658.59 C 444.53 658.49 450.56 659.81 461.90 665.20 C 468.33 668.26 471.84 670.78 476.90 675.94 C 489.11 688.42 494.86 701.13 495.73 717.59 C 496.63 734.47 492.32 748.12 481.79 761.78 C 468.09 779.53 442.32 788.53 419.50 783.53 M 656.51 783.39 C 634.62 778.09 615.67 758.76 610.42 736.38 C 608.02 726.15 608.88 708.73 612.23 699.76 C 622.22 673.00 646.44 656.68 673.57 658.43 C 692.19 659.63 703.99 664.85 716.52 677.44 C 730.02 690.99 735.64 705.54 734.71 724.50 C 733.88 741.63 728.15 754.65 716.00 767.06 C 701.88 781.48 676.94 788.32 656.51 783.39 M 512.12 700.80 C 509.60 688.58 502.03 675.10 492.45 665.75 L 486.56 660.00 L 551.78 660.00 C 587.65 660.00 617.00 660.34 616.99 660.75 C 616.99 661.16 614.49 663.97 611.44 666.98 C 601.62 676.68 595.06 688.48 592.77 700.53 L 591.54 707.00 L 552.47 707.00 L 513.40 707.00 L 512.12 700.80 M 351.24 694.75 C 350.09 693.51 344.17 685.52 338.10 677.00 C 317.98 648.74 319.00 650.41 319.00 645.63 C 319.00 641.57 319.65 640.51 328.56 630.09 C 333.81 623.94 341.80 614.97 346.31 610.15 C 350.81 605.34 360.34 594.93 367.48 587.02 L 380.45 572.64 L 372.36 549.07 C 360.47 514.44 320.76 400.92 309.02 368.00 C 303.43 352.32 294.67 327.57 289.55 313.00 L 280.24 286.50 L 244.87 286.00 C 205.40 285.44 206.52 285.64 199.74 278.14 C 193.08 270.76 192.22 261.62 197.26 251.87 C 199.80 246.97 201.61 244.90 205.43 242.54 L 210.34 239.50 L 251.77 239.19 C 298.40 238.84 300.81 239.13 308.31 245.90 C 313.54 250.62 315.61 255.09 323.93 279.50 C 327.86 291.05 331.27 301.06 331.51 301.75 C 331.85 302.75 378.80 303.00 561.79 303.00 C 818.36 303.00 798.06 302.41 805.98 310.10 C 811.50 315.46 814.17 321.59 814.13 328.88 C 814.11 333.56 812.25 339.80 803.97 363.05 C 798.39 378.70 788.90 405.68 782.87 423.00 C 776.85 440.32 770.32 459.00 768.36 464.50 C 766.41 470.00 757.02 497.00 747.50 524.50 C 737.98 552.00 729.47 576.17 728.60 578.21 C 725.04 586.51 716.84 592.90 707.20 594.90 C 703.49 595.67 659.18 596.00 559.70 596.00 L 417.50 596.00 L 400.50 614.61 C 391.15 624.84 381.36 635.60 378.75 638.51 L 374.00 643.81 L 378.47 649.30 L 382.94 654.79 L 376.22 661.66 C 368.19 669.85 362.32 678.72 357.94 689.25 C 356.17 693.51 354.41 697.00 354.04 697.00 C 353.66 697.00 352.40 695.99 351.24 694.75 M 466.31 552.25 C 466.63 551.67 458.53 516.74 453.67 497.75 L 452.96 495.00 L 426.48 495.00 C 411.92 495.00 400.00 495.20 400.00 495.43 C 400.00 495.67 400.50 497.14 401.12 498.68 C 401.74 500.23 404.63 508.55 407.54 517.17 C 410.45 525.79 414.51 537.38 416.57 542.92 L 420.31 553.00 L 443.09 553.00 C 455.63 553.00 466.07 552.66 466.31 552.25 M 528.75 552.35 L 537.00 551.70 L 537.00 523.35 L 537.00 495.00 L 514.43 495.00 C 493.40 495.00 491.90 495.12 492.41 496.75 C 492.71 497.71 494.07 503.72 495.45 510.10 C 498.91 526.20 504.88 551.00 505.56 552.09 C 506.21 553.15 516.94 553.27 528.75 552.35 M 606.88 549.25 C 607.41 547.19 608.14 543.92 608.51 542.00 C 608.88 540.08 611.13 530.17 613.51 520.00 C 615.90 509.82 618.14 500.04 618.50 498.25 L 619.16 495.00 L 596.58 495.00 L 574.00 495.00 L 574.00 523.33 C 574.00 538.92 574.30 551.97 574.67 552.33 C 575.03 552.70 582.22 553.00 590.63 553.00 L 605.92 553.00 L 606.88 549.25 M 692.00 551.00 C 692.84 549.65 711.00 496.56 711.00 495.46 C 711.00 495.21 699.33 495.00 685.07 495.00 C 661.24 495.00 659.09 495.14 658.60 496.75 C 657.89 499.09 645.00 552.14 645.00 552.73 C 645.00 552.98 655.37 553.03 668.04 552.84 C 687.17 552.56 691.23 552.25 692.00 551.00 M 445.04 462.25 C 445.07 461.84 442.48 450.40 439.29 436.83 L 433.50 412.15 L 424.19 411.45 C 413.51 410.65 373.40 411.27 372.41 412.25 C 371.88 412.78 383.82 449.84 387.88 460.25 L 388.95 463.00 L 416.98 463.00 C 432.39 463.00 445.02 462.66 445.04 462.25 M 537.00 437.00 L 537.00 411.00 L 505.06 411.00 C 487.49 411.00 472.92 411.34 472.68 411.75 C 472.26 412.47 480.75 451.59 483.00 459.25 L 484.09 463.00 L 510.55 463.00 L 537.00 463.00 L 537.00 437.00 M 627.53 461.75 C 628.17 460.02 637.99 418.25 638.69 414.24 L 639.27 410.97 L 606.88 411.24 L 574.50 411.50 L 574.23 435.98 C 574.08 449.45 574.18 461.03 574.45 461.73 C 575.15 463.56 626.85 463.58 627.53 461.75 M 723.88 458.75 C 727.10 451.18 739.14 412.81 738.50 412.17 C 737.52 411.19 678.00 410.66 677.98 411.63 C 677.97 412.11 675.34 423.86 672.14 437.75 L 666.32 463.00 L 694.20 463.00 L 722.07 463.00 L 723.88 458.75 M 425.01 377.25 C 425.02 376.29 423.37 368.41 421.33 359.75 L 417.64 344.00 L 383.32 344.00 C 354.28 344.00 349.00 344.22 349.00 345.42 C 349.00 347.21 357.74 372.53 359.65 376.25 L 361.05 379.00 L 393.03 379.00 C 422.81 379.00 425.00 378.88 425.01 377.25 M 536.95 361.50 L 536.83 344.00 L 496.92 344.00 L 457.00 344.00 L 457.00 346.30 C 457.00 348.72 463.64 376.61 464.57 378.12 C 464.87 378.60 481.31 379.00 501.10 379.00 L 537.07 379.00 L 536.95 361.50 M 649.49 367.25 C 650.96 360.79 652.77 353.11 653.51 350.19 C 654.52 346.18 654.56 344.77 653.67 344.43 C 653.02 344.18 635.06 344.09 613.74 344.24 L 574.99 344.50 L 574.52 360.89 C 574.27 369.91 574.30 377.67 574.59 378.14 C 574.88 378.61 591.25 379.00 610.96 379.00 L 646.80 379.00 L 649.49 367.25 M 757.15 362.50 C 760.34 353.70 762.97 345.94 762.98 345.25 C 763.00 344.27 755.55 344.00 729.04 344.00 C 697.70 344.00 695.00 344.14 694.17 345.75 C 693.36 347.32 688.23 367.40 686.51 375.76 L 685.84 379.03 L 718.59 378.76 L 751.34 378.50 z" stroke-linecap="round"/>
</g>
</g>
</g>

  </svg>